<svg xmlns="http://www.w3.org/2000/svg" width="227" height="256" fill="none"><path fill="#0014FF" d="M43.502 14.322a29.213 29.213 0 00-29.18 29.18v168.996a29.182 29.182 0 0029.18 29.18 29.181 29.181 0 0029.18-29.18V43.502a29.213 29.213 0 00-29.18-29.18zm0-14.322a43.502 43.502 0 0143.502 43.502v168.996A43.505 43.505 0 0143.502 256 43.502 43.502 0 010 212.498V43.502A43.502 43.502 0 0143.502 0z"/><path fill="url(#prefix__logo-outline-color_b)" d="M155.838 128a56.835 56.835 0 00-55.745 67.927 56.834 56.834 0 0015.555 29.102 56.82 56.82 0 0040.279 16.952 56.835 56.835 0 0052.603-78.887 56.851 56.851 0 00-12.502-18.445A56.468 56.468 0 00155.838 128zm0-14.322a71.166 71.166 0 0165.744 43.929 71.159 71.159 0 01-15.426 77.551 71.164 71.164 0 01-77.55 15.425 71.164 71.164 0 01-43.93-65.744 71.161 71.161 0 0171.162-71.161z"/><defs><linearGradient id="prefix__logo-outline-color_b" x1="130.5" x2="216" y1="159.5" y2="245" gradientUnits="userSpaceOnUse"><stop stop-color="#0014FF"/><stop offset="1" stop-color="#2AF598"/></linearGradient></defs></svg>