<svg xmlns="http://www.w3.org/2000/svg" width="236" height="265" fill="none" viewBox="-4.5 -4.5 236 265"><path fill="#000" stroke="#000" stroke-width="9" stroke-linecap="round" stroke-linejoin="round" d="M43.502 7.16A36.38 36.38 0 007.161 43.503v168.996a36.341 36.341 0 0072.682 0V43.502a36.38 36.38 0 00-36.34-36.341zm0-7.16a43.502 43.502 0 0143.502 43.502v168.996A43.505 43.505 0 0143.502 256 43.502 43.502 0 010 212.498V43.502A43.502 43.502 0 0143.502 0z"/><path fill="#000" stroke="#000" stroke-width="9" stroke-linecap="round" stroke-linejoin="round" d="M155.838 120.839a64.002 64.002 0 1045.256 109.257 64.002 64.002 0 000-90.513 63.572 63.572 0 00-45.256-18.744zm0-7.161a71.166 71.166 0 0165.744 43.929 71.159 71.159 0 01-15.426 77.551 71.164 71.164 0 01-77.55 15.425 71.163 71.163 0 01-43.93-65.744 71.161 71.161 0 0171.162-71.161z"/></svg>